<?xml version="1.0" encoding="UTF-8" standalone="no"?>
<!-- Created with Inkscape (http://www.inkscape.org/) -->

<svg
   width="2048"
   height="2048"
   viewBox="0 0 541.86666 541.86667"
   version="1.1"
   id="svg29566"
   inkscape:version="1.2.2 (b0a8486541, 2022-12-01)"
   sodipodi:docname="digit_03_v2_italic.svg"
   xmlns:inkscape="http://www.inkscape.org/namespaces/inkscape"
   xmlns:sodipodi="http://sodipodi.sourceforge.net/DTD/sodipodi-0.dtd"
   xmlns="http://www.w3.org/2000/svg"
   xmlns:svg="http://www.w3.org/2000/svg">
  <sodipodi:namedview
     id="namedview29568"
     pagecolor="#ffffff"
     bordercolor="#000000"
     borderopacity="0.25"
     inkscape:showpageshadow="2"
     inkscape:pageopacity="0.0"
     inkscape:pagecheckerboard="false"
     inkscape:deskcolor="#d1d1d1"
     inkscape:document-units="px"
     showgrid="false"
     inkscape:zoom="0.15459539"
     inkscape:cx="2949.6352"
     inkscape:cy="1827.3507"
     inkscape:window-width="1920"
     inkscape:window-height="1006"
     inkscape:window-x="0"
     inkscape:window-y="34"
     inkscape:window-maximized="1"
     inkscape:current-layer="layer1" />
  <defs
     id="defs29563" />
  <g
     inkscape:label="Camada 1"
     inkscape:groupmode="layer"
     id="layer1">
    <g
       aria-label="l"
       transform="matrix(1.4442321,0,-0.19137158,0.69240946,-1192.704,-2.7666125e-4)"
       id="text1590"
       style="font-size:308.471px;font-family:Andika;-inkscape-font-specification:'Andika, Normal';stroke-width:1.56144;stop-color:#000000">
      <path
         id="path1595"
         d="m 981.61248,58.467259 c -10.97511,-0.129712 -21.75728,4.71437 -32.34697,14.533238 -13.03346,12.08476 -24.1234,31.133513 -33.26941,57.144813 -9.1343,25.7804 -14.67877,58.0678 -16.63363,96.86214 -1.94321,38.56342 0.15683,72.40965 6.30037,101.53936 6.1436,29.12973 15.04864,52.32815 26.715,69.59431 11.62032,16.95105 24.58537,27.02439 38.89314,30.23224 0.22091,8.47664 0.33384,17.57931 0.33384,27.33724 v 170.20151 h 30.87748 c -0.6025,-5.52275 -1.155,-12.65227 -1.6571,-21.38826 -0.4016,-8.73598 -0.7532,-17.67268 -1.05445,-26.81033 -0.20083,-9.13764 -0.30092,-16.9194 -0.30092,-23.34587 V 423.19609 c 2.66337,-1.70631 5.28037,-3.75445 7.84687,-6.17512 15.7213,-11.67879 20.2972,-17.93702 28.5777,-34.00866 6.6127,-9.05645 12.7384,-22.88933 18.3773,-41.49805 5.7611,-18.81539 9.1886,-39.07606 10.2824,-60.78242 1.6058,-31.86678 -0.9806,-59.39968 -7.7588,-82.59832 -6.7666,-23.42957 -16.9585,-36.63652 -30.5758,-39.62179 -13.5065,-2.961 -25.5992,4.89341 -36.27822,23.56455 -10.56825,18.69542 -16.78348,46.51707 -18.64525,83.46406 -0.95416,18.93533 -1.03713,28.85966 -2.05134,57.38737 0.26151,19.34723 -0.013,23.83269 0.83227,47.30897 -8.66611,-9.31893 -5.77102,-3.97969 -16.639,-16.85805 -7.63963,-10.54666 -13.7063,-25.65129 -18.20013,-45.31403 -4.3716,-19.86941 -5.81286,-44.5826 -4.32345,-74.14019 1.40796,-27.94116 4.80328,-50.89393 10.18585,-68.85843 5.39421,-18.19542 11.98898,-31.34221 19.78453,-39.43894 7.90627,-8.07245 16.12183,-11.17404 24.64648,-9.30521 4.53908,0.99509 8.76656,2.62247 12.68231,4.88173 4.03805,2.0526 7.41485,5.0107 10.13035,8.87458 l 10.353,-55.514087 c -3.3798,-4.009513 -7.864,-7.21062 -13.452,-9.602998 -5.46567,-2.599049 -10.80018,-4.46869 -16.0035,-5.609398 -2.55324,-0.559741 -5.0962,-0.854465 -7.62892,-0.884398 z m 39.00582,151.424651 c 0.3283,0.02 0.6583,0.0668 0.9905,0.13957 5.2033,1.1407 9.1514,8.30995 11.8443,21.50767 2.7045,12.9668 3.5739,29.03308 2.6081,48.19933 -0.7913,15.70247 -3.0274,31.20504 -6.7087,46.50741 -5.6053,18.66534 -16.6201,30.4058 -31.62343,36.0827 -0.73488,-16.12227 -0.80646,-24.10347 -1.08453,-40.04794 0.46798,-18.71968 1.92831,-31.61576 2.70793,-47.08731 1.00073,-19.859 3.60403,-35.98155 7.80993,-48.36725 4.047,-11.58884 8.5325,-17.23378 13.4559,-16.93418 z" />
    </g>
  </g>
</svg>
