<?xml version="1.0" encoding="UTF-8" standalone="no"?>
<!-- Created with Inkscape (http://www.inkscape.org/) -->

<svg
   width="6.5890002mm"
   height="5.1209998mm"
   viewBox="0 0 6.5890002 5.1209998"
   version="1.1"
   id="svg29566"
   inkscape:version="1.2.2 (b0a8486541, 2022-12-01)"
   sodipodi:docname="niftimal_digit_I.svg"
   xmlns:inkscape="http://www.inkscape.org/namespaces/inkscape"
   xmlns:sodipodi="http://sodipodi.sourceforge.net/DTD/sodipodi-0.dtd"
   xmlns="http://www.w3.org/2000/svg"
   xmlns:svg="http://www.w3.org/2000/svg">
  <sodipodi:namedview
     id="namedview29568"
     pagecolor="#ffffff"
     bordercolor="#000000"
     borderopacity="0.25"
     inkscape:showpageshadow="2"
     inkscape:pageopacity="0.0"
     inkscape:pagecheckerboard="0"
     inkscape:deskcolor="#d1d1d1"
     inkscape:document-units="mm"
     showgrid="false"
     inkscape:zoom="2.4735262"
     inkscape:cx="189.40572"
     inkscape:cy="27.491118"
     inkscape:window-width="1920"
     inkscape:window-height="1006"
     inkscape:window-x="0"
     inkscape:window-y="34"
     inkscape:window-maximized="1"
     inkscape:current-layer="layer1" />
  <defs
     id="defs29563" />
  <g
     inkscape:label="Camada 1"
     inkscape:groupmode="layer"
     id="layer1">
    <g
       id="g48567"
       transform="translate(-30.084549,-10.963312)">
      <text
         xml:space="preserve"
         style="font-style:normal;font-variant:normal;font-weight:normal;font-stretch:normal;font-size:4.23333px;font-family:Andika;-inkscape-font-specification:'Andika, Normal';font-variant-ligatures:normal;font-variant-caps:normal;font-variant-numeric:normal;font-variant-east-asian:normal;fill:#000000;stroke-width:0.264583"
         x="-34.079777"
         y="13.26646"
         id="text21572"
         transform="scale(-1,1)"><tspan
           sodipodi:role="line"
           id="tspan21570"
           style="font-style:normal;font-variant:normal;font-weight:normal;font-stretch:normal;font-size:4.23333px;font-family:Andika;-inkscape-font-specification:'Andika, Normal';font-variant-ligatures:normal;font-variant-caps:normal;font-variant-numeric:normal;font-variant-east-asian:normal;fill:#000000;stroke-width:0.264583"
           x="-34.079777"
           y="13.26646">·</tspan></text>
      <path
         id="path21574"
         style="font-size:4.23333px;font-family:'Andika Tauga';-inkscape-font-specification:'Andika Tauga, Normal';fill:#000000;stroke-width:0.264583"
         d="m 33.356566,15.523643 c 0.195908,-0.0029 0.366386,-0.05125 0.510563,-0.144694 0.150206,-0.09646 0.266653,-0.2322 0.349333,-0.40721 0.08268,-0.175011 0.124023,-0.380339 0.124023,-0.615983 0,-0.201193 -0.03032,-0.37965 -0.09095,-0.535368 -0.06063,-0.155718 -0.144694,-0.277675 -0.252181,-0.365869 -0.107487,-0.08819 -0.230821,-0.132292 -0.370003,-0.132292 -0.173633,0 -0.325907,0.04272 -0.45682,0.128157 -0.129535,0.08406 -0.242537,0.189481 -0.338997,0.31626 v -0.219108 -0.243913 -0.371036 -0.479041 h -0.413412 -5.17e-4 c 0.01103,0.07717 0.01864,0.166226 0.02274,0.280603 0.0041,0.114377 0.0062,0.2322 0.0062,0.353467 0.0014,0.121267 0.0026,0.110587 0.0026,0.209806 v 0.115755 0.396875 0.345199 l 0.0078,-0.01344 0.374654,0.124024 v -0.0031 c 0.07028,-0.172255 0.167432,-0.311437 0.291455,-0.417546 0.125401,-0.107486 0.252181,-0.16123 0.380338,-0.16123 0.148828,0 0.263202,0.06684 0.343132,0.200505 0.08131,0.13229 0.121956,0.313504 0.121956,0.543636 0,0.232888 -0.05926,0.420302 -0.177767,0.562239 -0.118511,0.141937 -0.269406,0.212907 -0.452685,0.212907 -0.08819,0 -0.169503,-0.0083 -0.243913,-0.0248 -0.06402,-0.01449 -0.13958,-0.03877 -0.225826,-0.07338 l -0.419096,-0.138493 v 0.120923 0.250114 c 0.130913,0.03996 0.270096,0.0813 0.417546,0.124023 0.147449,0.04134 0.304547,0.06201 0.471289,0.06201 0.0064,0 0.01228,9.4e-5 0.0186,0 z" />
    </g>
  </g>
</svg>
