<?xml version="1.0" encoding="UTF-8" standalone="no"?>
<!-- Created with Inkscape (http://www.inkscape.org/) -->

<svg
   width="6.5890002mm"
   height="5.1209998mm"
   viewBox="0 0 6.5890002 5.1209998"
   version="1.1"
   id="svg29566"
   inkscape:version="1.2.2 (b0a8486541, 2022-12-01)"
   sodipodi:docname="niftimal_digit_Q.svg"
   xmlns:inkscape="http://www.inkscape.org/namespaces/inkscape"
   xmlns:sodipodi="http://sodipodi.sourceforge.net/DTD/sodipodi-0.dtd"
   xmlns="http://www.w3.org/2000/svg"
   xmlns:svg="http://www.w3.org/2000/svg">
  <sodipodi:namedview
     id="namedview29568"
     pagecolor="#ffffff"
     bordercolor="#000000"
     borderopacity="0.25"
     inkscape:showpageshadow="2"
     inkscape:pageopacity="0.0"
     inkscape:pagecheckerboard="0"
     inkscape:deskcolor="#d1d1d1"
     inkscape:document-units="mm"
     showgrid="false"
     inkscape:zoom="3.4980943"
     inkscape:cx="174.80947"
     inkscape:cy="37.448962"
     inkscape:window-width="1920"
     inkscape:window-height="1006"
     inkscape:window-x="0"
     inkscape:window-y="34"
     inkscape:window-maximized="1"
     inkscape:current-layer="layer1" />
  <defs
     id="defs29563" />
  <g
     inkscape:label="Camada 1"
     inkscape:groupmode="layer"
     id="layer1">
    <g
       id="g50544"
       transform="translate(-44.26255,-16.584311)">
      <path
         d="m 47.391684,17.423985 q 0,-0.115753 -0.07855,-0.196367 -0.07648,-0.08268 -0.190169,-0.08268 -0.115755,0 -0.192236,0.08268 -0.07648,0.08061 -0.07648,0.196367 0,0.11369 0.07648,0.196373 0.07648,0.08268 0.192236,0.08268 0.113688,0 0.190169,-0.08268 0.07855,-0.08268 0.07855,-0.196373 z m 0.868164,0 q 0,-0.115753 -0.07855,-0.196367 -0.07648,-0.08268 -0.190169,-0.08268 -0.115755,0 -0.192236,0.08268 -0.07648,0.08061 -0.07648,0.196367 0,0.11369 0.07648,0.196373 0.07648,0.08268 0.192236,0.08268 0.113688,0 0.190169,-0.08268 0.07855,-0.08268 0.07855,-0.196373 z"
         id="path21620"
         style="font-size:4.23333px;font-family:Andika;-inkscape-font-specification:'Andika, Normal';fill:#000000;stroke-width:0.264583" />
      <path
         id="path21624"
         style="font-size:4.23333px;font-family:'Andika Tauga';-inkscape-font-specification:'Andika Tauga, Normal';fill:#000000;stroke-width:0.264583"
         d="m 47.534564,18.074593 c 0.195908,0.0028 0.366386,0.05125 0.510563,0.144693 0.150206,0.09646 0.266653,0.232198 0.349333,0.407207 0.08268,0.175015 0.124023,0.380341 0.124023,0.615984 0,0.201195 -0.03032,0.37965 -0.09095,0.53537 -0.06063,0.155715 -0.144694,0.277673 -0.252181,0.365869 -0.107487,0.08819 -0.230821,0.132289 -0.370003,0.132289 -0.173633,0 -0.325907,-0.0427 -0.45682,-0.128153 -0.129535,-0.08406 -0.242537,-0.189482 -0.338997,-0.316262 v 0.219108 0.243915 0.371032 0.479043 h -0.413412 -5.07e-4 c 0.01103,-0.07717 0.01864,-0.166226 0.02274,-0.280602 0.0041,-0.114377 0.0062,-0.232203 0.0062,-0.35347 0.0014,-0.121267 0.0026,-0.110585 0.0026,-0.209803 v -0.115754 -0.396876 -0.345202 l 0.0078,0.01345 0.374654,-0.124021 v 0.0032 c 0.07028,0.172255 0.167432,0.311435 0.291455,0.417543 0.125401,0.107486 0.252181,0.161234 0.380338,0.161234 0.148828,0 0.263202,-0.06684 0.343132,-0.200509 0.08131,-0.132289 0.121956,-0.313503 0.121956,-0.543633 0,-0.232889 -0.05926,-0.420302 -0.177767,-0.562241 -0.118511,-0.141934 -0.269406,-0.212908 -0.452685,-0.212908 -0.08819,0 -0.169503,0.0083 -0.243913,0.02478 -0.06402,0.01451 -0.13958,0.03878 -0.225826,0.07338 l -0.419096,0.138493 V 18.51085 18.26074 c 0.130913,-0.03998 0.270096,-0.0813 0.417546,-0.124026 0.147449,-0.04132 0.304547,-0.06201 0.471289,-0.06201 0.0064,0 0.01228,-9.2e-5 0.0186,0 z" />
    </g>
  </g>
</svg>
