<?xml version="1.0" encoding="UTF-8" standalone="no"?>
<!-- Created with Inkscape (http://www.inkscape.org/) -->

<svg
   width="6.5890002mm"
   height="5.1209998mm"
   viewBox="0 0 6.5890002 5.1209998"
   version="1.1"
   id="svg29566"
   inkscape:version="1.2.2 (b0a8486541, 2022-12-01)"
   sodipodi:docname="niftimal_digit_E.svg"
   xmlns:inkscape="http://www.inkscape.org/namespaces/inkscape"
   xmlns:sodipodi="http://sodipodi.sourceforge.net/DTD/sodipodi-0.dtd"
   xmlns="http://www.w3.org/2000/svg"
   xmlns:svg="http://www.w3.org/2000/svg">
  <sodipodi:namedview
     id="namedview29568"
     pagecolor="#ffffff"
     bordercolor="#000000"
     borderopacity="0.25"
     inkscape:showpageshadow="2"
     inkscape:pageopacity="0.0"
     inkscape:pagecheckerboard="0"
     inkscape:deskcolor="#d1d1d1"
     inkscape:document-units="mm"
     showgrid="false"
     inkscape:zoom="3.4980943"
     inkscape:cx="148.50943"
     inkscape:cy="15.151107"
     inkscape:window-width="1920"
     inkscape:window-height="1006"
     inkscape:window-x="0"
     inkscape:window-y="34"
     inkscape:window-maximized="1"
     inkscape:current-layer="layer1" />
  <defs
     id="defs29563" />
  <g
     inkscape:label="Camada 1"
     inkscape:groupmode="layer"
     id="layer1">
    <g
       id="g47162"
       transform="translate(-44.262551,-5.3423119)">
      <text
         xml:space="preserve"
         style="font-style:normal;font-variant:normal;font-weight:normal;font-stretch:normal;font-size:4.23333px;font-family:Andika;-inkscape-font-specification:'Andika, Normal';font-variant-ligatures:normal;font-variant-caps:normal;font-variant-numeric:normal;font-variant-east-asian:normal;fill:#000000;stroke-width:0.264583"
         x="46.856312"
         y="7.6582789"
         id="text21606"><tspan
           sodipodi:role="line"
           id="tspan21604"
           style="font-style:normal;font-variant:normal;font-weight:normal;font-stretch:normal;font-size:4.23333px;font-family:Andika;-inkscape-font-specification:'Andika, Normal';font-variant-ligatures:normal;font-variant-caps:normal;font-variant-numeric:normal;font-variant-east-asian:normal;fill:#000000;stroke-width:0.264583"
           x="46.856312"
           y="7.6582789">·</tspan></text>
      <path
         id="path21608"
         style="font-size:4.23333px;font-family:'Andika Tauga';-inkscape-font-specification:'Andika Tauga, Normal';fill:#000000;stroke-width:0.264583"
         d="m 47.534565,6.8197787 c 0.195908,0.0029 0.366386,0.05125 0.510563,0.1446939 0.150206,0.09646 0.266654,0.2322002 0.349334,0.40721 0.08268,0.1750111 0.124023,0.3803389 0.124023,0.6159831 0,0.201193 -0.03032,0.3796499 -0.09095,0.5353678 -0.06063,0.155718 -0.144694,0.2776753 -0.252181,0.3658692 -0.107488,0.08819 -0.230822,0.1322918 -0.370004,0.1322918 -0.173633,0 -0.325907,-0.042721 -0.456819,-0.128157 -0.129536,-0.08406 -0.242537,-0.1894809 -0.338998,-0.3162597 v 0.219108 0.2439129 0.3710362 0.479041 h -0.413412 -5.06e-4 c 0.01103,-0.07717 0.01864,-0.1662261 0.02274,-0.2806033 0.0041,-0.1143768 0.0062,-0.2321997 0.0062,-0.3534671 0.0014,-0.1212669 0.0026,-0.1105869 0.0026,-0.2098058 V 8.9302448 8.5333699 8.1881705 l 0.0078,0.01344 0.374653,-0.1240241 v 0.00309 c 0.07028,0.1722548 0.167433,0.3114368 0.291455,0.4175458 0.125402,0.1074861 0.252181,0.1612304 0.380338,0.1612304 0.148829,0 0.263203,-0.06684 0.343133,-0.2005054 0.08131,-0.1322899 0.121956,-0.313504 0.121956,-0.5436361 0,-0.2328878 -0.05926,-0.4203016 -0.177767,-0.5622388 -0.118511,-0.1419368 -0.269406,-0.212907 -0.452685,-0.212907 -0.08819,0 -0.169503,0.0083 -0.243913,0.024799 -0.06402,0.01449 -0.139581,0.038769 -0.225827,0.07338 L 46.62718,7.3768335 V 7.2559107 7.0057963 c 0.130912,-0.039962 0.270096,-0.0813 0.417545,-0.1240231 0.14745,-0.041339 0.304548,-0.06201 0.47129,-0.06201 0.0064,0 0.01228,-9.4e-5 0.0186,0 z" />
    </g>
  </g>
</svg>
