<?xml version="1.0" encoding="UTF-8" standalone="no"?>
<!-- Created with Inkscape (http://www.inkscape.org/) -->

<svg
   width="2048"
   height="2048"
   viewBox="0 0 541.86666 541.86667"
   version="1.1"
   id="svg29566"
   inkscape:version="1.2.2 (b0a8486541, 2022-12-01)"
   sodipodi:docname="digit_03_v2_bold.svg"
   xmlns:inkscape="http://www.inkscape.org/namespaces/inkscape"
   xmlns:sodipodi="http://sodipodi.sourceforge.net/DTD/sodipodi-0.dtd"
   xmlns="http://www.w3.org/2000/svg"
   xmlns:svg="http://www.w3.org/2000/svg">
  <sodipodi:namedview
     id="namedview29568"
     pagecolor="#ffffff"
     bordercolor="#000000"
     borderopacity="0.25"
     inkscape:showpageshadow="2"
     inkscape:pageopacity="0.0"
     inkscape:pagecheckerboard="false"
     inkscape:deskcolor="#d1d1d1"
     inkscape:document-units="px"
     showgrid="false"
     inkscape:zoom="0.15459539"
     inkscape:cx="2949.6352"
     inkscape:cy="1827.3507"
     inkscape:window-width="1920"
     inkscape:window-height="1006"
     inkscape:window-x="0"
     inkscape:window-y="34"
     inkscape:window-maximized="1"
     inkscape:current-layer="layer1" />
  <defs
     id="defs29563" />
  <g
     inkscape:label="Camada 1"
     inkscape:groupmode="layer"
     id="layer1">
    <g
       aria-label="ҩ"
       transform="rotate(6,-655.76871,-8267.0509)"
       id="text1003"
       style="font-weight:bold;font-size:493.889px;font-family:'Andika Tauga';-inkscape-font-specification:'Andika Tauga, Bold';fill:#ff0000;stroke-width:2.5;stop-color:#000000">
      <path
         id="path1580"
         d="m 1031.3369,-91.075412 c -10.9149,1.243464 -21.678,3.854686 -32.28884,7.833768 -15.27325,5.787756 -29.09929,14.308331 -41.47866,25.562301 -12.2186,11.093199 -22.02588,24.59835 -29.42135,40.514679 -7.23469,15.9163284 -10.85186,34.002723 -10.85186,54.259869 0,26.848757 5.70752,49.839102 17.12226,68.970855 11.57551,19.13175 26.84883,33.76232 45.81981,43.8909 19.13174,9.9678 39.95154,14.9518 62.45954,14.9518 0.51,0 1.0236,-0.0118 1.5364,-0.0202 0.7803,5.28731 1.4882,10.92096 2.1191,16.92339 l 12.537,119.2819 58.962,-6.19716 c -1.1929,-3.78787 -2.4389,-8.70856 -3.7375,-14.76214 -1.1676,-6.06734 -2.2845,-12.2822 -3.3507,-18.6448 -0.9351,-6.37638 -1.639,-11.81697 -2.1123,-16.32083 l -9.8375,-93.59704 c 28.6111,-12.55641 52.7063,-37.10067 59.1565,-53.46373 8.3601,-13.504763 12.5399,-28.215518 12.5399,-44.131847 0,-22.186398 -5.9485,-40.755399 -17.8456,-55.7071022 -11.7363,-15.1124738 -28.6977,-22.6687608 -50.8841,-22.6687608 -22.0257,0 -40.1927,7.234884 -54.5014,21.7042749 -14.3085,14.4693901 -21.463,34.5657501 -21.463,60.2891101 0,10.336073 3.7805,36.618074 8.724,54.092705 -6.0197,-1.2874 -11.9025,-3.47742 -17.6464,-6.5848 -9.6463,-5.466214 -17.60458,-13.826483 -23.87467,-25.080453 -6.27006,-11.253969 -9.40538,-25.562573 -9.40538,-42.925841 0,-24.437192 6.18991,-43.0060961 18.56925,-55.707005 12.3794,-12.700909 26.6879,-19.051429 42.9258,-19.051429 4.1801,0 9.405,0.321474 15.6751,0.964558 6.2701,0.482314 11.4953,1.36658 15.6754,2.652748 l 15.6753,-51.848695 c -5.1447,-2.250793 -12.2187,-3.778254 -21.2219,-4.582109 -8.8424,-0.964626 -17.0419,-1.446805 -24.5982,-1.446805 -5.0241,0 -10.0167,0.282629 -14.978,0.847839 z m 66.5676,112.537332 c 0.3234,-0.02763 0.6513,-0.04147 0.9829,-0.04147 5.1447,0 9.0834,3.215116 11.8165,9.645956 2.8939,6.430841 4.3408,14.469377 4.3408,24.115637 0,5.948527 -0.7237,12.299177 -2.1705,19.051559 -1.2862,6.591611 -4.0994,12.861503 -8.4402,18.810031 -3.8406,5.263008 -9.5771,9.641807 -17.1931,13.142897 -2.8962,-16.943856 -5.958,-43.363497 -5.958,-48.592886 0,-10.128573 1.6077,-18.649419 4.8232,-25.562572 3.0145,-6.631804 6.947,-10.154661 11.7984,-10.569149 z"
         style="fill:#000000" />
    </g>
  </g>
</svg>
